<svg xmlns="http://www.w3.org/2000/svg" x="0px" y="0px" width="200" height="200" viewBox="0 0 48 48">
    <path d="M45.925,13.978c-0.217-0.59-0.779-0.982-1.407-0.982c-0.003,0-0.006,0-0.009,0l-7.005,0.041 c-0.389,0.002-0.762,0.156-1.04,0.428c-0.634,0.62-1.103,1.271-1.555,1.899c-1.148,1.595-1.906,2.648-4.833,2.648h-0.464 c-1.199-2.202-2.641-3.76-4.318-4.641c0.383-0.63,0.619-1.353,0.619-2.134c0-2.354-1.999-4.27-4.456-4.27s-4.456,1.916-4.456,4.27 c0,0.825,0.256,1.589,0.681,2.242c-2.032,1.114-3.448,3.033-4.578,5.035c-1.039,0.387-1.94,0.992-2.685,1.795 c-0.854-0.67-2.13-1.345-3.813-1.345c-0.022,0-0.046,0-0.069,0c-3.281,0.036-4.55,3.013-4.602,5.044c0,3.58,2.64,5.43,4.761,6.917 l0.451,0.317c1.083,0.73,1.385,1.464,1.396,1.752c-0.013,0.001-0.027,0.001-0.044,0.001c-0.828,0-1.5,0.671-1.5,1.5 s0.672,1.5,1.5,1.5c1.408,0,2.521-0.781,2.905-2.039c0.002-0.008,0.002-0.016,0.005-0.024c0.451,0.338,0.928,0.658,1.459,0.939 c2.769,1.462,5.746,1.963,8.131,2.089V38c0,1.105-0.895,2-2,2h-4c-0.828,0-1.5,0.672-1.5,1.5S14.172,43,15,43h15 c0.828,0,1.5-0.672,1.5-1.5S30.828,40,30,40h-4c-1.105,0-2-0.895-2-2v-1.044c4.762-0.246,8.637-1.62,12.61-6.585 c2.328-2.962,3.254-5.39,4.071-7.532c0.99-2.596,1.772-4.646,4.802-7.196C45.967,15.237,46.144,14.571,45.925,13.978z M20.002,11.238c0-0.7,0.653-1.27,1.456-1.27s1.456,0.57,1.456,1.27c0,0.698-0.649,1.266-1.448,1.269c-0.004,0-0.009,0-0.013,0 C20.652,12.505,20.002,11.936,20.002,11.238z M21.394,15.502c0.022,0,0.042,0.006,0.064,0.006c0.024,0,0.047-0.007,0.072-0.007 c0.116-0.002,0.231-0.005,0.35-0.002c1.64,0.055,3.004,0.868,4.208,2.513h-9.072C18.339,16.316,19.688,15.571,21.394,15.502z M4.935,24.06c0.015-0.347,0.16-2.078,1.636-2.094c0.012,0,0.023,0,0.034,0c1.053,0,1.804,0.524,2.222,0.917 c-0.516,1.296-0.807,2.815-0.831,4.533c-0.004,0.266,0.024,0.526,0.047,0.786C6.106,26.824,4.935,25.781,4.935,24.06z M37.879,21.771c-0.777,2.037-1.581,4.144-3.619,6.737c-3.648,4.56-6.932,5.449-11.716,5.495c-1.801,0.011-5.262-0.191-8.274-1.782 c-1.513-0.798-3.309-2.272-3.274-4.763c0.033-2.407,0.727-6.445,4.992-6.445h14.089c4.464,0,6.019-2.16,7.268-3.895 c0.274-0.382,0.538-0.749,0.824-1.084l2.738-0.016C39.319,17.995,38.613,19.845,37.879,21.771z"></path>
</svg>